<svg width="84" height="82" viewBox="0 0 84 82" fill="none" xmlns="http://www.w3.org/2000/svg">
<g filter="url(#filter0_g_1175_5320)">
<path d="M82.9053 42.6263C82.9053 65.6681 66.2784 80.3428 43.1189 80.3428C19.9593 80.3428 0.905273 65.5576 0.905273 42.5158C0.905273 19.4739 16.6935 0.905298 39.853 0.905298C63.0125 0.905298 82.9053 19.5844 82.9053 42.6263Z" fill="#AEDEFC"/>
</g>
<path d="M6.88454 39.8595C6.88454 45.8057 10.8681 49.5928 16.4167 49.5928C21.9653 49.5928 26.5304 45.7772 26.5304 39.8309C26.5304 33.8847 22.7478 29.0928 17.1991 29.0928C11.6505 29.0928 6.88454 33.9132 6.88454 39.8595Z" fill="#F5544C" fill-opacity="0.25"/>
<path d="M58.1344 44.9845C58.1344 50.9308 62.118 54.7178 67.6666 54.7178C73.2152 54.7178 77.7803 50.9022 77.7803 44.956C77.7803 39.0097 73.9977 34.2178 68.449 34.2178C62.9004 34.2178 58.1344 39.0382 58.1344 44.9845Z" fill="#F5544C" fill-opacity="0.25"/>
<path d="M28.9141 30.9294C27.6635 32.8873 28.9068 34.2961 30.1983 35.1212C31.4898 35.9462 33.5732 35.8442 34.8239 33.8864C36.0746 31.9285 34.8087 29.7032 33.5172 28.8782C32.2257 28.0532 30.1648 28.9715 28.9141 30.9294Z" fill="black"/>
<path d="M58.0796 33.8839C58.8982 36.0582 57.3903 37.1793 55.9561 37.7193C54.5218 38.2593 52.5046 37.7285 51.686 35.5543C50.8674 33.38 52.5663 31.4647 54.0005 30.9248C55.4348 30.3848 57.2611 31.7097 58.0796 33.8839Z" fill="black"/>
<path d="M33.4917 42.9937C33.4917 42.9937 35.9039 47.8732 41.0677 48.2013C46.2315 48.5294 50.4468 44.468 50.4468 44.468" stroke="black" stroke-width="3.41667" stroke-linecap="round"/>
<defs>
<filter id="filter0_g_1175_5320" x="-0.000143111" y="-0.000143111" width="83.8108" height="81.2483" filterUnits="userSpaceOnUse" color-interpolation-filters="sRGB">
<feFlood flood-opacity="0" result="BackgroundImageFix"/>
<feBlend mode="normal" in="SourceGraphic" in2="BackgroundImageFix" result="shape"/>
<feTurbulence type="fractalNoise" baseFrequency="0.32162958383560181 0.32162958383560181" numOctaves="3" seed="4563" />
<feDisplacementMap in="shape" scale="1.8108330965042114" xChannelSelector="R" yChannelSelector="G" result="displacedImage" width="100%" height="100%" />
<feMerge result="effect1_texture_1175_5320">
<feMergeNode in="displacedImage"/>
</feMerge>
</filter>
</defs>
</svg>
