<svg width="14" height="14" viewBox="0 0 14 14" fill="none" xmlns="http://www.w3.org/2000/svg">
<path fill-rule="evenodd" clip-rule="evenodd" d="M6.99998 0C10.8659 0 14 3.13399 14 6.99998C14 10.8659 10.866 14 6.99998 14C3.13402 14 0 10.866 0 6.99998C0 3.13399 3.13402 0 6.99998 0ZM6.99998 9.275C6.51669 9.275 6.12494 9.66672 6.12494 10.15C6.12494 10.6332 6.51672 11.025 6.99995 11.025C7.48318 11.025 7.87496 10.6332 7.87496 10.15C7.87496 9.66672 7.48321 9.275 6.99998 9.275ZM6.88314 3.06255C6.20179 3.06255 5.62911 3.24817 5.1658 3.6184C4.61678 4.06189 4.3425 4.71683 4.3425 5.5838H5.83094V5.57382C5.83094 5.24304 5.9006 4.97171 6.03963 4.76007C6.23142 4.47559 6.54254 4.33318 6.97265 4.33318C7.23735 4.33318 7.46264 4.40268 7.6476 4.54141C7.87906 4.73363 7.99519 5.02457 7.99519 5.41501C7.99519 5.65989 7.93534 5.87812 7.81636 6.07014C7.7171 6.24215 7.55832 6.41074 7.33966 6.57628C6.87654 6.89387 6.57539 7.20824 6.43666 7.5194C6.31752 7.77744 6.25767 8.1877 6.25767 8.75H7.65761C7.65761 8.37935 7.70686 8.10163 7.80658 7.91624C7.88585 7.76406 8.05146 7.60206 8.30293 7.42989C8.73983 7.10554 9.05057 6.80436 9.23599 6.52643C9.46085 6.19568 9.57356 5.80846 9.57356 5.36497C9.57356 4.44589 9.19976 3.79398 8.45154 3.41C8.00185 3.17845 7.47901 3.06255 6.88314 3.06255Z" fill="#F5544C"/>
</svg>
