<svg width="179" height="172" viewBox="0 0 179 172" fill="none" xmlns="http://www.w3.org/2000/svg">
<path d="M179 163.113C179 167.531 175.418 171.113 171 171.113H8C3.58179 171.113 0.000103114 167.531 0 163.113V63.1133L84.7988 1.52734C87.6022 -0.508637 91.3978 -0.508636 94.2012 1.52734L179 63.1133V163.113Z" fill="#F5544C"/>
<path d="M9.65 121.813L11.69 119.533C13.19 121.243 15.38 122.623 17.69 122.623C20.6 122.623 22.64 121.153 22.64 118.933C22.64 116.953 21.11 115.423 17.24 114.583C12.62 113.593 10.13 111.283 10.13 107.953C10.13 104.263 13.16 101.623 17.48 101.623C20.54 101.623 23.03 102.793 24.8 104.563L22.88 106.933C21.41 105.583 19.7 104.533 17.66 104.533C15.2 104.533 13.52 105.853 13.52 107.713C13.52 109.723 15.26 111.073 18.65 111.853C23.81 113.023 26 115.393 26 118.873C26 122.743 22.85 125.503 17.81 125.503C14.63 125.503 11.54 124.033 9.65 121.813ZM37.6782 122.653C40.8282 122.653 43.0482 119.923 43.0482 116.563C43.0482 113.233 40.8282 110.533 37.6782 110.533C34.4982 110.533 32.2782 113.233 32.2782 116.563C32.2782 119.923 34.4682 122.653 37.6782 122.653ZM37.6782 107.653C42.7482 107.653 46.3182 111.643 46.3182 116.563C46.3182 121.513 42.7482 125.503 37.6782 125.503C32.5482 125.503 29.0082 121.513 29.0082 116.563C29.0082 111.643 32.5482 107.653 37.6782 107.653ZM53.188 101.023V115.963L60.208 108.013H64.138L58.108 114.763L65.338 125.113H61.558L56.008 117.133L53.188 120.283V125.113H49.948V101.023H53.188ZM66.3924 122.683L68.1324 120.523C69.2424 121.873 70.9524 122.803 72.8424 122.803C74.9424 122.803 76.2324 121.843 76.2324 120.373C76.2324 118.993 75.1224 118.093 72.5124 117.613C68.7924 116.863 66.9924 115.093 66.9924 112.423C66.9924 109.723 69.3324 107.653 72.9024 107.653C75.1824 107.653 77.2824 108.643 78.6924 109.963L77.0424 112.063C75.8424 111.073 74.6124 110.383 73.1424 110.383C71.4324 110.383 70.1724 111.223 70.1724 112.453C70.1724 113.623 71.3424 114.613 73.6224 115.063C77.3424 115.873 79.4424 117.673 79.4424 120.433C79.4424 123.343 77.0724 125.503 73.0824 125.503C70.3224 125.503 67.8924 124.393 66.3924 122.683ZM96.1913 125.113V122.923C94.7213 124.513 92.6813 125.503 90.3713 125.503C85.6913 125.503 82.2113 121.513 82.2113 116.593C82.2113 111.673 85.6913 107.653 90.3713 107.653C92.6813 107.653 94.7213 108.673 96.1913 110.263V108.043H99.4313V125.113H96.1913ZM85.4813 116.593C85.4813 119.923 87.7613 122.623 90.8513 122.623C93.9113 122.623 96.1913 119.923 96.1913 116.593C96.1913 113.233 93.9113 110.533 90.8513 110.533C87.7613 110.533 85.4813 113.233 85.4813 116.593ZM107.211 101.023V115.963L114.231 108.013H118.161L112.131 114.763L119.361 125.113H115.581L110.031 117.133L107.211 120.283V125.113H103.971V101.023H107.211ZM10.76 158.113V134.023H14V158.113H10.76ZM34.9091 150.583H21.4691C21.8891 153.973 24.3791 155.773 26.9291 155.773C28.8191 155.773 30.6191 154.873 31.9391 153.343L34.0691 155.353C32.1791 157.423 29.8991 158.503 26.9891 158.503C21.6491 158.503 18.1391 154.543 18.1391 149.563C18.1391 144.643 21.6791 140.653 26.7191 140.653C31.6991 140.653 35.0591 144.493 35.0591 149.233C35.0591 149.623 34.9991 150.133 34.9091 150.583ZM26.7191 143.413C24.4091 143.413 22.1591 145.153 21.5591 148.033H31.6991C31.2191 145.333 29.3591 143.413 26.7191 143.413ZM43.055 143.863V152.593C43.055 154.693 43.955 155.683 46.235 155.683C46.715 155.683 47.375 155.653 47.825 155.593V158.353C47.315 158.473 46.565 158.503 45.905 158.503C41.795 158.503 39.815 156.613 39.815 152.683V143.863H36.785V141.013H39.815V136.363H43.055V141.013H47.645V143.863H43.055ZM55.6527 143.863V152.593C55.6527 154.693 56.5527 155.683 58.8327 155.683C59.3127 155.683 59.9727 155.653 60.4227 155.593V158.353C59.9127 158.473 59.1627 158.503 58.5027 158.503C54.3927 158.503 52.4127 156.613 52.4127 152.683V143.863H49.3827V141.013H52.4127V136.363H55.6527V141.013H60.2427V143.863H55.6527ZM79.4403 150.583H66.0003C66.4203 153.973 68.9103 155.773 71.4603 155.773C73.3503 155.773 75.1503 154.873 76.4703 153.343L78.6003 155.353C76.7103 157.423 74.4303 158.503 71.5203 158.503C66.1803 158.503 62.6703 154.543 62.6703 149.563C62.6703 144.643 66.2103 140.653 71.2503 140.653C76.2303 140.653 79.5903 144.493 79.5903 149.233C79.5903 149.623 79.5303 150.133 79.4403 150.583ZM71.2503 143.413C68.9403 143.413 66.6903 145.153 66.0903 148.033H76.2303C75.7503 145.333 73.8903 143.413 71.2503 143.413ZM94.1492 141.223L93.0392 144.103C92.4992 143.743 91.7792 143.563 91.1492 143.563C88.7792 143.563 86.4092 145.753 86.4092 148.513V158.113H83.1992V141.013H86.4092V143.353C87.6092 141.793 89.4392 140.653 91.8392 140.653C92.6492 140.653 93.4592 140.833 94.1492 141.223Z" fill="white"/>
<path d="M170 74.9533C169.99 74.9533 169.982 74.9453 169.982 74.9354V73.7617C169.982 73.4035 169.692 73.113 169.333 73.113C168.975 73.113 168.698 73.4234 168.515 73.731C168.304 74.0848 167.917 74.322 167.473 74.322C166.99 74.322 166.574 74.0404 166.38 73.6331C166.252 73.3652 166.021 73.113 165.725 73.113C165.428 73.113 165.198 73.3652 165.07 73.6331C164.875 74.0404 164.459 74.322 163.976 74.322C163.493 74.322 163.076 74.0404 162.882 73.6331C162.754 73.3652 162.524 73.113 162.227 73.113C161.93 73.113 161.7 73.3652 161.572 73.6331C161.377 74.0404 160.961 74.322 160.478 74.322C159.995 74.322 159.579 74.0404 159.384 73.6331C159.256 73.3652 159.026 73.113 158.729 73.113C158.432 73.113 158.202 73.3652 158.074 73.6331C157.88 74.0404 157.463 74.322 156.98 74.322C156.497 74.322 156.081 74.0404 155.886 73.6331C155.758 73.3652 155.528 73.113 155.231 73.113C154.935 73.113 154.704 73.3652 154.576 73.6331C154.382 74.0404 153.966 74.322 153.483 74.322C152.999 74.322 152.583 74.0404 152.389 73.6331C152.261 73.3652 152.031 73.113 151.734 73.113C151.437 73.113 151.207 73.3652 151.079 73.6331C150.884 74.0404 150.468 74.322 149.985 74.322C149.502 74.322 149.086 74.0404 148.891 73.6331C148.763 73.3652 148.533 73.113 148.236 73.113C147.939 73.113 147.709 73.3652 147.581 73.6331C147.387 74.0404 146.971 74.322 146.491 74.322C146.05 74.322 145.671 74.0853 145.464 73.7322C145.283 73.423 145.007 73.113 144.649 73.113C144.29 73.113 144 73.4035 144 73.7617V74.0332C144 74.5414 144.465 74.9368 144.834 75.2866C145.066 75.5069 145.211 75.8179 145.211 76.1623C145.211 76.6679 144.901 77.1014 144.458 77.2818C144.218 77.3798 144 77.5816 144 77.8412C144 78.1007 144.218 78.3027 144.458 78.4011C144.899 78.5818 145.211 79.0149 145.211 79.52C145.211 80.0257 144.901 80.4592 144.458 80.6395C144.218 80.7376 144 80.9394 144 81.1989C144 81.4585 144.218 81.6604 144.458 81.7589C144.899 81.9395 145.211 82.3727 145.211 82.8778C145.211 83.3834 144.901 83.8169 144.458 83.9973C144.218 84.0953 144 84.2971 144 84.5567C144 84.8162 144.218 85.0182 144.458 85.1166C144.899 85.2973 145.211 85.7305 145.211 86.2356C145.211 86.7412 144.901 87.1768 144.458 87.3582C144.218 87.4566 144 87.6585 144 87.918C144 88.1776 144.218 88.3795 144.458 88.478C144.899 88.6588 145.211 89.0927 145.211 89.6005C145.211 90.1088 144.901 90.543 144.458 90.7235C144.218 90.8216 144 91.0234 144 91.2829C144 91.5425 144.218 91.7444 144.458 91.8429C144.899 92.0238 145.211 92.4576 145.211 92.9654C145.211 93.4738 144.901 93.9079 144.458 94.0885C144.218 94.1866 144 94.3883 144 94.6479C144 94.9074 144.218 95.1094 144.458 95.2079C144.899 95.3887 145.211 95.8225 145.211 96.3303C145.211 96.8387 144.901 97.2729 144.458 97.4534C144.218 97.5515 144 97.7533 144 98.0128C144 98.2724 144.218 98.4743 144.458 98.5728C144.899 98.7536 145.211 99.1875 145.211 99.6953C145.211 100.204 144.901 100.638 144.458 100.818C144.218 100.916 144 101.118 144 101.378C144 101.637 144.218 101.839 144.458 101.938C144.899 102.119 145.211 102.552 145.211 103.06C145.211 103.407 145.067 103.719 144.834 103.94C144.466 104.29 144 104.685 144 105.193V105.464C144 105.823 144.29 106.113 144.649 106.113C145.007 106.113 145.284 105.803 145.467 105.495C145.678 105.14 146.065 104.901 146.509 104.901C146.993 104.901 147.407 105.183 147.6 105.593C147.727 105.861 147.957 106.113 148.254 106.113C148.551 106.113 148.781 105.861 148.909 105.593C149.103 105.184 149.519 104.901 150.003 104.901C150.487 104.901 150.903 105.183 151.098 105.593C151.225 105.861 151.455 106.113 151.752 106.113C152.049 106.113 152.279 105.861 152.406 105.593C152.601 105.184 153.017 104.901 153.5 104.901C153.984 104.901 154.401 105.183 154.595 105.593C154.722 105.861 154.952 106.113 155.249 106.113C155.546 106.113 155.776 105.861 155.904 105.593C156.098 105.184 156.515 104.901 156.998 104.901C157.482 104.901 157.899 105.183 158.093 105.593C158.22 105.861 158.45 106.113 158.747 106.113C159.044 106.113 159.274 105.861 159.402 105.593C159.596 105.184 160.012 104.901 160.496 104.901C160.98 104.901 161.397 105.183 161.591 105.593C161.718 105.861 161.948 106.113 162.245 106.113C162.542 106.113 162.772 105.861 162.899 105.593C163.094 105.184 163.51 104.901 163.994 104.901C164.478 104.901 164.894 105.183 165.088 105.593C165.216 105.861 165.446 106.113 165.743 106.113C166.039 106.113 166.27 105.861 166.397 105.593C166.592 105.184 167.008 104.901 167.491 104.901C167.936 104.901 168.323 105.139 168.534 105.495C168.717 105.803 168.993 106.113 169.351 106.113C169.71 106.113 170 105.823 170 105.464V105.193C170 104.685 169.534 104.289 169.166 103.939C168.934 103.718 168.789 103.407 168.789 103.06C168.789 102.552 169.099 102.118 169.542 101.937C169.782 101.839 170 101.637 170 101.378C170 101.118 169.782 100.916 169.542 100.818C169.101 100.637 168.789 100.203 168.789 99.6953C168.789 99.1869 169.099 98.7527 169.542 98.5722C169.782 98.4741 170 98.2724 170 98.0128C170 97.7533 169.782 97.5513 169.542 97.4528C169.101 97.272 168.789 96.8382 168.789 96.3303C168.789 95.822 169.099 95.3878 169.542 95.2073C169.782 95.1092 170 94.9074 170 94.6479C170 94.3883 169.782 94.1864 169.542 94.0879C169.101 93.907 168.789 93.4732 168.789 92.9654C168.789 92.4571 169.099 92.0229 169.542 91.8424C169.782 91.7443 170 91.5425 170 91.2829C170 91.0234 169.782 90.8215 169.542 90.723C169.101 90.5421 168.789 90.1083 168.789 89.6005C168.789 89.0921 169.099 88.658 169.542 88.4774C169.782 88.3793 170 88.1776 170 87.918C170 87.6585 169.782 87.4565 169.542 87.358C169.101 87.1772 168.789 86.7434 168.789 86.2356C168.789 85.7273 169.099 85.2952 169.541 85.1156C169.782 85.018 170 84.8162 170 84.5567C170 84.2971 169.782 84.0952 169.542 83.9967C169.101 83.816 168.789 83.3829 168.789 82.8778C168.789 82.3722 169.099 81.9387 169.542 81.7583C169.782 81.6603 170 81.4585 170 81.1989C170 80.9394 169.782 80.7374 169.542 80.639C169.101 80.4583 168.789 80.0251 168.789 79.52C168.789 79.0144 169.099 78.5809 169.542 78.4005C169.782 78.3025 170 78.1007 170 77.8412C170 77.5816 169.782 77.3797 169.542 77.2812C169.101 77.1005 168.789 76.6674 168.789 76.1623C168.789 75.495 169.33 74.9533 170 74.9533Z" fill="white"/>
</svg>
