<?xml version="1.0" encoding="UTF-8"?>
<svg version="1.1" xmlns="http://www.w3.org/2000/svg" width="279" height="316">
<path d="M0 0 C4.62 0 9.24 0 14 0 C14.99 1.98 15.98 3.96 17 6 C19.04056739 8.4656856 19.86973924 8.95657975 23 10 C27.12242312 10.26596278 29.9558389 10.39446086 33.8125 8.9375 C36.82011473 6.27361267 37.65006665 3.76560355 39 0 C43.29 0 47.58 0 52 0 C52.5878125 1.6396875 52.5878125 1.6396875 53.1875 3.3125 C54.31901371 5.90031376 55.0181643 7.01608838 57.1875 8.9375 C61.96972698 10.74411908 66.08869777 10.80699427 70.8125 8.8125 C73.83751042 6.3060628 75.26973879 3.46052242 77 0 C80.96 0 84.92 0 89 0 C89.433125 0.928125 89.86625 1.85625 90.3125 2.8125 C92.46610641 6.88042321 93.63394185 8.54464728 98 10 C102.12242312 10.26596278 104.9558389 10.39446086 108.8125 8.9375 C111.82011473 6.27361267 112.65006665 3.76560355 114 0 C118.29 0 122.58 0 127 0 C127.5878125 1.6396875 127.5878125 1.6396875 128.1875 3.3125 C129.31901371 5.90031376 130.0181643 7.01608838 132.1875 8.9375 C135.87227358 10.32952558 139.14716513 10.67235746 143 10 C147.93760781 7.5777773 149.93267422 5.05346301 152 0 C155.96 0 159.92 0 164 0 C167 5.75 167 5.75 167 8 C172.73256791 10.29302716 177.89728482 11.17213685 183.8125 8.9375 C186.82011473 6.27361267 187.65006665 3.76560355 189 0 C193.29 0 197.58 0 202 0 C202.5878125 1.6396875 202.5878125 1.6396875 203.1875 3.3125 C204.31901371 5.90031376 205.0181643 7.01608838 207.1875 8.9375 C210.87227358 10.32952558 214.14716513 10.67235746 218 10 C222.93760781 7.5777773 224.93267422 5.05346301 227 0 C230.96 0 234.92 0 239 0 C242 5.75 242 5.75 242 8 C247.73256791 10.29302716 252.89728482 11.17213685 258.8125 8.9375 C261.82011473 6.27361267 262.65006665 3.76560355 264 0 C268.95 0 273.9 0 279 0 C279 5.94 279 11.88 279 18 C275.04 19.485 275.04 19.485 271 21 C267.84612216 24.15387784 267.30523939 25.64248937 266.953125 30.00390625 C267.03006116 33.28010454 267.71136795 34.64405524 270 37 C272.97332037 38.30510345 275.85119736 39.1329384 279 40 C279 43.3 279 46.6 279 50 C277.576875 50.556875 276.15375 51.11375 274.6875 51.6875 C271.72075418 53.02370363 270.10286725 53.88805623 267.875 56.3125 C266.68313817 59.97321847 266.99111771 62.30076493 268 66 C270.88162238 70.10077032 274.23284286 70.89988681 279 72 C279 75.3 279 78.6 279 82 C277.576875 82.556875 276.15375 83.11375 274.6875 83.6875 C271.72075418 85.02370363 270.10286725 85.88805623 267.875 88.3125 C266.66821193 92.01906337 266.93063526 94.2572234 268 98 C271.17473533 102.08180257 274.02074242 103.72623643 279 105 C279 108.3 279 111.6 279 115 C277.576875 115.391875 276.15375 115.78375 274.6875 116.1875 C271.5642358 117.24498315 270.17779757 117.81174374 267.875 120.25 C266.68543614 123.98862928 266.92292798 126.23024793 268 130 C271.17473533 134.08180257 274.02074242 135.72623643 279 137 C279 140.3 279 143.6 279 147 C277.906875 147.309375 276.81375 147.61875 275.6875 147.9375 C270.94097336 148.9332197 270.94097336 148.9332197 267.75 152.0625 C266.75635862 155.95426205 266.8994881 159.14011636 268 163 C270.83046322 167.13683086 274.23886992 167.90127767 279 169 C279 172.3 279 175.6 279 179 C277.741875 179.433125 276.48375 179.86625 275.1875 180.3125 C272.08373056 181.38101079 270.07813124 182.41807937 268 185 C267.11397002 188.61227607 266.95692217 191.55199053 267.3125 195.25 C269.71631217 199.16732354 272.5566771 199.48847283 276.8828125 200.5546875 C277.58148438 200.70164063 278.28015625 200.84859375 279 201 C279 204.3 279 207.6 279 211 C277.576875 211.556875 276.15375 212.11375 274.6875 212.6875 C271.72075418 214.02370363 270.10286725 214.88805623 267.875 217.3125 C266.68313817 220.97321847 266.99111771 223.30076493 268 227 C270.88162238 231.10077032 274.23284286 231.89988681 279 233 C279 236.3 279 239.6 279 243 C277.576875 243.556875 276.15375 244.11375 274.6875 244.6875 C271.72075418 246.02370363 270.10286725 246.88805623 267.875 249.3125 C266.66821193 253.01906337 266.93063526 255.2572234 268 259 C271.17473533 263.08180257 274.02074242 264.72623643 279 266 C279 269.3 279 272.6 279 276 C277.576875 276.391875 276.15375 276.78375 274.6875 277.1875 C271.61180618 278.23372026 270.17343178 278.82146729 267.875 281.1875 C266.67411564 285.04748543 266.68824904 288.16131774 268 292 C271.45721324 295.7535458 273.94560602 296.31520201 279 298 C279 303.94 279 309.88 279 316 C274.05 316 269.1 316 264 316 C263.608125 314.906875 263.21625 313.81375 262.8125 312.6875 C261.68098629 310.09968624 260.9818357 308.98391162 258.8125 307.0625 C254.03027302 305.25588092 249.91130223 305.19300573 245.1875 307.1875 C242.16248958 309.6939372 240.73026121 312.53947758 239 316 C235.04 316 231.08 316 227 316 C226.608125 315.0925 226.21625 314.185 225.8125 313.25 C223.81504205 309.66835126 222.5672091 308.01624862 219 306 C214.28754751 305.14635796 210.89540767 305.57671637 206.5625 307.625 C203.41103898 310.1641077 203.41103898 310.1641077 202 316 C197.71 316 193.42 316 189 316 C188.608125 314.906875 188.21625 313.81375 187.8125 312.6875 C186.68098629 310.09968624 185.9818357 308.98391162 183.8125 307.0625 C179.03027302 305.25588092 174.91130223 305.19300573 170.1875 307.1875 C167.16248958 309.6939372 165.73026121 312.53947758 164 316 C160.04 316 156.08 316 152 316 C149 310.25 149 310.25 149 308 C144.43493181 305.64383578 140.02596584 305.29211749 135 306 C131.50082995 307.44309572 131.50082995 307.44309572 129 310 C128.34 311.98 127.68 313.96 127 316 C122.71 316 118.42 316 114 316 C113.608125 314.906875 113.21625 313.81375 112.8125 312.6875 C111.68098629 310.09968624 110.9818357 308.98391162 108.8125 307.0625 C104.03027302 305.25588092 99.91130223 305.19300573 95.1875 307.1875 C92.16248958 309.6939372 90.73026121 312.53947758 89 316 C85.04 316 81.08 316 77 316 C74 310.25 74 310.25 74 308 C69.40874665 305.63032085 65.05013076 305.43071253 60 306 C57.00618942 307.10640826 55.57715141 307.94850958 54.03515625 310.7578125 C53.28128691 312.47399431 52.63255758 314.23549727 52 316 C47.71 316 43.42 316 39 316 C38.608125 314.906875 38.21625 313.81375 37.8125 312.6875 C36.68098629 310.09968624 35.9818357 308.98391162 33.8125 307.0625 C29.03027302 305.25588092 24.91130223 305.19300573 20.1875 307.1875 C17.16248958 309.6939372 15.73026121 312.53947758 14 316 C9.38 316 4.76 316 0 316 C0 310.06 0 304.12 0 298 C2.1346875 297.195625 2.1346875 297.195625 4.3125 296.375 C7.61694331 294.88956413 8.90749504 294.11893495 11.1875 291.1875 C12.24900178 287.02314686 11.73838731 284.91137146 10 281 C6.89469841 277.81077134 4.41489526 276.50455946 0 276 C0 272.7 0 269.4 0 266 C0.69867188 265.72027344 1.39734375 265.44054687 2.1171875 265.15234375 C8.0315026 262.62129522 8.0315026 262.62129522 11.8125 257.625 C12.05103566 253.01331052 11.55722988 250.87237667 9 247 C6.05582794 245.23141608 3.2580987 244.18047054 0 243 C0 239.7 0 236.4 0 233 C1.0725 232.7525 2.145 232.505 3.25 232.25 C7.06478629 230.97840457 8.63566239 230.18276216 11 227 C12.35912586 223.64748955 11.99650226 221.98575919 11.125 218.4375 C9.57975346 215.08336296 7.64015881 214.04029493 4.3125 212.5625 C2.889375 212.046875 1.46625 211.53125 0 211 C0 207.7 0 204.4 0 201 C1.8871875 200.38125 1.8871875 200.38125 3.8125 199.75 C7.29088407 198.43485125 9.2784965 197.44300699 11 194 C12.24069824 190.63239048 12.10523614 189.29232261 10.875 185.875 C7.95169135 181.3925934 5.10982416 180.27745604 0 179 C0 175.7 0 172.4 0 169 C1.8871875 168.38125 1.8871875 168.38125 3.8125 167.75 C7.29088407 166.43485125 9.2784965 165.44300699 11 162 C12.25221197 158.60113893 12.11604786 157.30538911 10.8125 153.875 C8.40373279 150.05419683 6.64409392 148.41102348 2.25 147.3125 C1.13625 147.1578125 1.13625 147.1578125 0 147 C0 143.7 0 140.4 0 137 C1.423125 136.484375 2.84625 135.96875 4.3125 135.4375 C7.59778196 133.97104133 9.59874181 132.9118346 11.1875 129.625 C12.12366175 125.44827836 12.00425997 123.75798744 10 120 C6.86093418 116.86093418 4.4105949 115.50406799 0 115 C0 111.7 0 108.4 0 105 C1.423125 104.484375 2.84625 103.96875 4.3125 103.4375 C7.59778196 101.97104133 9.59874181 100.9118346 11.1875 97.625 C12.11161227 93.50203757 11.87336551 91.74673101 10 88 C7.57818953 84.55847986 3.79324872 83.50298534 0 82 C0 78.7 0 75.4 0 72 C1.0725 71.7525 2.145 71.505 3.25 71.25 C7.06478629 69.97840457 8.63566239 69.18276216 11 66 C12.35912586 62.64748955 11.99650226 60.98575919 11.125 57.4375 C9.57975346 54.08336296 7.64015881 53.04029493 4.3125 51.5625 C2.889375 51.046875 1.46625 50.53125 0 50 C0 46.7 0 43.4 0 40 C1.0725 39.7525 2.145 39.505 3.25 39.25 C7.06478629 37.97840457 8.63566239 37.18276216 11 34 C12.35912586 30.64748955 11.99650226 28.98575919 11.125 25.4375 C9.57975346 22.08336296 7.64015881 21.04029493 4.3125 19.5625 C2.889375 19.046875 1.46625 18.53125 0 18 C0 12.06 0 6.12 0 0 Z " fill="#F4554B" transform="translate(0,0)"/>
<path d="M0 0 C0.99 0.495 0.99 0.495 2 1 C2.45703125 3.109375 2.45703125 3.109375 2.8125 5.75 C3.45780247 9.07615462 4.0081631 11.01322986 5.8125 13.9375 C9.97491825 16.63082946 13.99827542 17.34903143 18.82421875 18.31640625 C23.48376945 19.31938457 27.56674081 20.56674081 31 24 C30.9375 26.9375 30.9375 26.9375 30 30 C26.49570029 33.28528098 22.74920939 33.56299268 18.12890625 33.43359375 C14.81804244 32.75927103 13.27673509 30.39349074 11 28 C8.27300471 27.2721178 5.8424151 27.14452958 3 27 C4.75474646 32.5413046 5.8848775 35.80304843 11 39 C17.92562785 41.30854262 25.075389 40.86220227 31.625 37.6875 C34.82298218 35.96431543 35.93169064 35.10246403 38 32 C38.38499891 30.34450469 38.72793135 28.6777567 39 27 C44.89598967 29.12972754 49.883154 32.62267162 55.05834961 36.08447266 C56.23072762 36.86344727 57.40921386 37.63330379 58.59350586 38.39404297 C60.31199115 39.4981549 62.01050791 40.6281387 63.70703125 41.765625 C64.7225708 42.43368164 65.73811035 43.10173828 66.78442383 43.79003906 C69 46 69 46 69.41821289 49.01171875 C69.05343374 51.61819676 68.62075684 53.64072956 67.6015625 56.046875 C67.29154297 56.79743164 66.98152344 57.54798828 66.66210938 58.32128906 C66.31986328 59.12276367 65.97761719 59.92423828 65.625 60.75 C64.89647161 62.50960402 64.17002098 64.27006928 63.4453125 66.03125 C63.05375977 66.97871094 62.66220703 67.92617187 62.25878906 68.90234375 C59.92218952 74.6523001 57.71734019 80.45325059 55.5 86.25 C55.05479004 87.41112305 54.60958008 88.57224609 54.15087891 89.76855469 C53.09933449 92.5118934 52.04902556 95.25569734 51 98 C53.64 98.33 56.28 98.66 59 99 C59.30292969 98.15695313 59.60585937 97.31390625 59.91796875 96.4453125 C60.33691406 95.34960938 60.75585938 94.25390625 61.1875 93.125 C61.59355469 92.03445312 61.99960938 90.94390625 62.41796875 89.8203125 C64 87 64 87 69 85 C69 97.87 69 110.74 69 124 C61.41 124 53.82 124 46 124 C45.65066406 120.63039063 45.30132812 117.26078125 44.94140625 113.7890625 C44.60143936 110.53570843 44.26013598 107.28249717 43.91870117 104.02929688 C43.68162367 101.76349245 43.44594188 99.49754154 43.21166992 97.23144531 C42.87522947 93.97942467 42.53381837 90.7279591 42.19140625 87.4765625 C42.08719864 86.45881744 41.98299103 85.44107239 41.87562561 84.39248657 C41.72558327 82.98125015 41.72558327 82.98125015 41.57250977 81.54150391 C41.44260399 80.29574081 41.44260399 80.29574081 41.31007385 79.02481079 C41.09626662 76.93697615 41.09626662 76.93697615 40 75 C37.64400765 74.53248212 37.64400765 74.53248212 34.9375 74.375 C34.01839844 74.30023438 33.09929687 74.22546875 32.15234375 74.1484375 C31.08693359 74.07496094 31.08693359 74.07496094 30 74 C29.60321045 74.63800537 29.2064209 75.27601074 28.79760742 75.93334961 C20.64613925 89.03144528 12.43995894 102.08563455 4 115 C6.64 115.66 9.28 116.32 12 117 C13.98 113.7 15.96 110.4 18 107 C24.41129125 108.12197597 30.70783291 109.33791813 37 111 C37.495 117.435 37.495 117.435 38 124 C19.52 124 1.04 124 -18 124 C-18.33 119.71 -18.66 115.42 -19 111 C-20.8931348 104.1847147 -23.54156433 100.52637499 -29.203125 96.390625 C-34.91273059 93.55177083 -43.30392873 93.87851671 -49.39453125 95.7265625 C-54.70650121 98.57350065 -58.15165361 103.25220092 -60.40625 108.75390625 C-61.71567775 113.70733358 -61.77765834 118.90147576 -62 124 C-64.31 124 -66.62 124 -69 124 C-69 98.26 -69 72.52 -69 46 C-47 47 -47 47 -41 50 C-40.50953678 55.39509537 -40.50953678 55.39509537 -42.875 58.3125 C-46.05648897 60.83897653 -47.92553337 61.17930455 -51.9375 61.25 C-52.81277344 61.27578125 -53.68804687 61.3015625 -54.58984375 61.328125 C-57.48786919 60.93358021 -58.03198368 60.03869094 -60 58 C-63.64541845 58.23477199 -63.64541845 58.23477199 -67 59 C-65.82191948 62.3529984 -64.80593388 64.7552529 -62 67 C-55.17262547 69.27579151 -47.99210287 68.88973747 -41.5 65.8125 C-37.80474722 63.67970941 -34.95273097 61.90546195 -33 58 C-32.16997513 53.2406021 -32.55147006 49.91367211 -34.6875 45.5625 C-38.56682052 41.26379348 -42.58960812 40.77216616 -48.12695312 40.46875 C-48.84818359 40.4378125 -49.56941406 40.406875 -50.3125 40.375 C-51.05306641 40.33632812 -51.79363281 40.29765625 -52.55664062 40.2578125 C-54.37071309 40.16418295 -56.18532116 40.08103149 -58 40 C-52.77913296 34.55470655 -46.82580292 29.40132323 -39 29 C-39 28.01 -39 27.02 -39 26 C-37.6809082 24.7800293 -37.6809082 24.7800293 -35.80078125 23.57421875 C-34.74286377 22.88344238 -34.74286377 22.88344238 -33.66357422 22.17871094 C-32.88771973 21.68661133 -32.11186523 21.19451172 -31.3125 20.6875 C-29.6754836 19.62415601 -28.03877837 18.56033286 -26.40234375 17.49609375 C-25.53077637 16.93390137 -24.65920898 16.37170898 -23.76123047 15.79248047 C-18.9343295 12.65904926 -14.15805981 9.44977559 -9.375 6.25 C-7.57052891 5.04655045 -5.76586009 3.84339729 -3.9609375 2.640625 C-3.19571777 2.13047852 -2.43049805 1.62033203 -1.64208984 1.09472656 C-1.1002002 0.7334668 -0.55831055 0.37220703 0 0 Z " fill="#FEFCFC" transform="translate(146,98)"/>
<path d="M0 0 C2.64 0.66 5.28 1.32 8 2 C7.62082394 7.59284686 6.64865739 12.47753995 4.953125 17.83203125 C4.58864258 18.99065674 4.22416016 20.14928223 3.84863281 21.34301758 C3.42855957 22.65822388 3.42855957 22.65822388 3 24 C3.69037354 23.51007568 4.38074707 23.02015137 5.09204102 22.51538086 C7.67377148 20.69732484 10.26707614 18.89757985 12.86938477 17.10913086 C13.99051387 16.33331275 15.10683723 15.55049959 16.21801758 14.76049805 C17.82115253 13.62258094 19.44366461 12.51212147 21.06640625 11.40234375 C22.03521729 10.72679443 23.00402832 10.05124512 24.00219727 9.35522461 C27.82125185 7.6287345 29.98195394 7.98521045 34 9 C34.99 9.66 35.98 10.32 37 11 C30.27403953 16.43511957 23.2433909 21.28137818 16 26 C17.31148153 32.58390224 19.19935461 38.62353994 21.625 44.875 C22.26749897 46.53733861 22.90572058 48.20133859 23.5390625 49.8671875 C23.81959473 50.59019043 24.10012695 51.31319336 24.38916016 52.05810547 C25 54 25 54 25 57 C21.35693614 56.94816958 18.32172433 56.54567645 15 55 C12.56074456 51.40538737 11.52199448 47.53595831 10.375 43.375 C10.03855469 42.28703125 9.70210937 41.1990625 9.35546875 40.078125 C8.53155068 37.39450614 7.74890375 34.70532747 7 32 C1.70113315 34.36469764 1.70113315 34.36469764 -1.33984375 39.015625 C-1.53707031 40.08296875 -1.73429688 41.1503125 -1.9375 42.25 C-2.15277344 43.32765625 -2.36804688 44.4053125 -2.58984375 45.515625 C-2.72519531 46.33546875 -2.86054688 47.1553125 -3 48 C-6.87493656 49.07637127 -8.52452927 48.94566951 -12 47 C-10.50998775 36.87102678 -7.65947596 27.14148698 -4.875 17.3125 C-4.40188456 15.62838414 -3.92922473 13.94414022 -3.45703125 12.25976562 C-2.3099325 8.17168236 -1.15669033 4.08537927 0 0 Z " fill="#F55A51" transform="translate(131,138)"/>
<path d="M0 0 C3.55159376 2.19140892 5.52768038 4.11961986 7 8 C7.26474494 12.68069045 7.08689616 17.3076072 7 22 C-1.58 22 -10.16 22 -19 22 C-19 7.46875 -19 7.46875 -14 1.6875 C-9.71869192 -1.92485369 -5.14708818 -1.17596039 0 0 Z " fill="#FEFAFA" transform="translate(112,200)"/>
<path d="M0 0 C22 1 22 1 28 4 C28.49046322 9.39509537 28.49046322 9.39509537 26.125 12.3125 C22.94351103 14.83897653 21.07446663 15.17930455 17.0625 15.25 C16.18722656 15.27578125 15.31195313 15.3015625 14.41015625 15.328125 C12 15 12 15 10.62109375 13.421875 C9.81865234 12.71804687 9.81865234 12.71804687 9 12 C6.69 12.33 4.38 12.66 2 13 C1.67 34.12 1.34 55.24 1 77 C2.65 77 4.3 77 6 77 C6 74.69 6 72.38 6 70 C6.33 70 6.66 70 7 70 C7 72.64 7 75.28 7 78 C4.69 78 2.38 78 0 78 C0 52.26 0 26.52 0 0 Z " fill="#FDEFEF" transform="translate(77,144)"/>
<path d="M0 0 C0.6328125 2.28515625 0.6328125 2.28515625 1.125 5.0625 C1.37636719 6.44115234 1.37636719 6.44115234 1.6328125 7.84765625 C1.75398438 8.55792969 1.87515625 9.26820313 2 10 C0.96101563 10.12117187 -0.07796875 10.24234375 -1.1484375 10.3671875 C-10.31135229 11.43594349 -10.31135229 11.43594349 -19.375 13.125 C-24.22493641 14.17074181 -29.05224182 14.42980526 -34 14 C-35 13 -35 13 -35.0625 9.9375 C-35.041875 8.968125 -35.02125 7.99875 -35 7 C-26.98285809 4.54123543 -18.94587434 2.44871289 -10.75 0.6875 C-9.91621826 0.50413086 -9.08243652 0.32076172 -8.22338867 0.13183594 C-2.2418611 -1.12093055 -2.2418611 -1.12093055 0 0 Z " fill="#FEF7F6" transform="translate(105,240)"/>
<path d="M0 0 C3.66881155 0.70554068 6.70450534 2.27735506 10 4 C8.73171322 7.38978468 7.27786435 10.35703574 5.3203125 13.3984375 C4.54494141 14.61273438 4.54494141 14.61273438 3.75390625 15.8515625 C3.21636719 16.68429688 2.67882812 17.51703125 2.125 18.375 C-1.38955216 23.84778195 -4.8303491 29.3191281 -8 35 C-12.75 33.125 -12.75 33.125 -15 32 C-14.39648038 28.09277252 -13.19958765 25.10489158 -11.34765625 21.62109375 C-10.55391602 20.11579102 -10.55391602 20.11579102 -9.74414062 18.58007812 C-9.18919922 17.54302734 -8.63425781 16.50597656 -8.0625 15.4375 C-6.96993243 13.37376126 -5.87747989 11.30996162 -4.78515625 9.24609375 C-4.29926025 8.33529053 -3.81336426 7.4244873 -3.31274414 6.48608398 C-2.17827269 4.33761407 -1.07591997 2.17823703 0 0 Z " fill="#FEF8F8" transform="translate(244,85)"/>
<path d="M0 0 C7.24756751 28.32805573 7.24756751 28.32805573 7 35 C4.36 35.33 1.72 35.66 -1 36 C-1.24907104 35.12432373 -1.24907104 35.12432373 -1.50317383 34.23095703 C-2.27221882 31.52876288 -3.04235474 28.82688076 -3.8125 26.125 C-4.07353516 25.2071875 -4.33457031 24.289375 -4.60351562 23.34375 C-6.15514967 17.90345285 -7.75666395 12.48561258 -9.45581055 7.08935547 C-10 5 -10 5 -10 2 C-6.45648927 0.38010938 -3.87280581 -0.10414268 0 0 Z " fill="#FEF7F7" transform="translate(63,67)"/>
<path d="M0 0 C2.97 1.65 5.94 3.3 9 5 C5.35291072 11.83568734 1.2778681 18.17289535 -3.1875 24.5 C-4.13012695 25.85738281 -4.13012695 25.85738281 -5.09179688 27.2421875 C-5.69443359 28.10070312 -6.29707031 28.95921875 -6.91796875 29.84375 C-7.73430786 31.00680664 -7.73430786 31.00680664 -8.56713867 32.19335938 C-10 34 -10 34 -12 35 C-14.625 33.5625 -14.625 33.5625 -17 32 C-16.41582515 28.21233999 -15.33395466 25.43863375 -13.41796875 22.12890625 C-12.63776367 20.77249023 -12.63776367 20.77249023 -11.84179688 19.38867188 C-11.29587891 18.45603516 -10.74996094 17.52339844 -10.1875 16.5625 C-9.65318359 15.63373047 -9.11886719 14.70496094 -8.56835938 13.74804688 C-5.85453439 9.05810332 -3.07593117 4.46121736 0 0 Z " fill="#FEF9F8" transform="translate(140,38)"/>
<path d="M0 0 C1.71785967 4.19565904 3.42656609 8.39488558 5.12695312 12.59765625 C5.7064908 14.02640462 6.28850231 15.45415216 6.87304688 16.88085938 C7.71358594 18.93360443 8.5451173 20.98980263 9.375 23.046875 C9.63748535 23.68244324 9.8999707 24.31801147 10.17041016 24.97283936 C11.49089573 28.27239271 12 30.37193822 12 34 C9.03 34.99 6.06 35.98 3 37 C0.14098146 30.125925 -2.23813319 23.28970935 -4.25 16.125 C-4.518125 15.20203125 -4.78625 14.2790625 -5.0625 13.328125 C-5.31515625 12.43867188 -5.5678125 11.54921875 -5.828125 10.6328125 C-6.0540332 9.83762207 -6.27994141 9.04243164 -6.51269531 8.22314453 C-7 6 -7 6 -7 2 C-2.25 0 -2.25 0 0 0 Z " fill="#FEF9F9" transform="translate(206,14)"/>
<path d="M0 0 C3.40312738 1.05875074 6.01353231 2.00902154 9 4 C7.26951004 9.03967251 4.4732747 13.36892618 1.6875 17.875 C1.21376953 18.65230469 0.74003906 19.42960937 0.25195312 20.23046875 C-2.65588124 24.9641526 -5.71857973 29.51718542 -9 34 C-13.75 33.125 -13.75 33.125 -16 32 C-15.07053968 27.85544679 -13.28466636 24.26945338 -11.375 20.5 C-11.02179688 19.79746094 -10.66859375 19.09492188 -10.3046875 18.37109375 C-7.11620111 12.09660804 -3.64832415 6.01973484 0 0 Z " fill="#FEF9F9" transform="translate(180,248)"/>
<path d="M0 0 C3.95008059 0.68379546 6.63457018 1.78843183 10 4 C8.33422247 8.93888427 5.54282522 13.00107268 2.6875 17.3125 C1.73244852 18.76651715 0.77801867 20.2209428 -0.17578125 21.67578125 C-0.64193848 22.38557129 -1.1080957 23.09536133 -1.58837891 23.82666016 C-3.77213755 27.18878735 -5.89065983 30.59083153 -8 34 C-12.75 33.125 -12.75 33.125 -15 32 C-14.38169084 27.7067686 -12.8527927 24.43188523 -10.83984375 20.60546875 C-10.53051407 20.01325027 -10.22118439 19.4210318 -9.90248108 18.81086731 C-8.92003983 16.93325402 -7.92893752 15.06037579 -6.9375 13.1875 C-6.26699947 11.9098087 -5.5970714 10.63181682 -4.92773438 9.35351562 C-3.29176712 6.23217084 -1.64800405 3.11500977 0 0 Z " fill="#FEF9F9" transform="translate(250,201)"/>
<path d="M0 0 C1.8871875 0.0309375 1.8871875 0.0309375 3.8125 0.0625 C4.15236581 4.1869885 4.48318458 8.31215678 4.8125 12.4375 C4.90789063 13.59378906 5.00328125 14.75007812 5.1015625 15.94140625 C5.63348108 22.66637693 5.95131345 29.31655187 5.8125 36.0625 C3.5025 36.0625 1.1925 36.0625 -1.1875 36.0625 C-2.98915169 29.35094167 -4.19142959 22.60513796 -5.3125 15.75 C-5.49425781 14.66654297 -5.67601562 13.58308594 -5.86328125 12.46679688 C-7.1875 4.45676692 -7.1875 4.45676692 -7.1875 1.0625 C-4.43671116 0.14557039 -2.82801087 -0.04636083 0 0 Z " fill="#FEFAF9" transform="translate(38.1875,174.9375)"/>
<path d="M0 0 C0.33 0 0.66 0 1 0 C1.33868777 2.20751848 1.67071689 4.41605911 2 6.625 C2.185625 7.85476562 2.37125 9.08453125 2.5625 10.3515625 C3 14 3 14 3 20 C-1.29 19.01 -5.58 18.02 -10 17 C-8.37999662 12.94999156 -6.77735918 9.86481376 -4.4375 6.25 C-3.81746094 5.28578125 -3.19742188 4.3215625 -2.55859375 3.328125 C-1 1 -1 1 0 0 Z " fill="#FEF6F6" transform="translate(179,182)"/>
</svg>
