<svg xmlns="http://www.w3.org/2000/svg" width="80" height="130" fill="none" viewBox="0 0 80 130"><path fill="#d6d6d6" d="M0 0h80v130H0z"/><rect width="2" height="2" x="3" y="4" fill="#fff" rx="1"/><rect width="2" height="2" x="15" y="4" fill="#fff" rx="1"/><rect width="2" height="2" x="27" y="4" fill="#fff" rx="1"/><rect width="2" height="2" x="39" y="4" fill="#fff" rx="1"/><rect width="2" height="2" x="51" y="4" fill="#fff" rx="1"/><rect width="2" height="2" x="63" y="4" fill="#fff" rx="1"/><rect width="2" height="2" x="75" y="4" fill="#fff" rx="1"/><rect width="2" height="2" x="9" y="12" fill="#fff" rx="1"/><rect width="2" height="2" x="21" y="12" fill="#fff" rx="1"/><rect width="2" height="2" x="33" y="12" fill="#fff" rx="1"/><rect width="2" height="2" x="45" y="12" fill="#fff" rx="1"/><rect width="2" height="2" x="57" y="12" fill="#fff" rx="1"/><rect width="2" height="2" x="69" y="12" fill="#fff" rx="1"/><rect width="2" height="2" x="3" y="20" fill="#fff" rx="1"/><rect width="2" height="2" x="15" y="20" fill="#fff" rx="1"/><rect width="2" height="2" x="27" y="20" fill="#fff" rx="1"/><rect width="2" height="2" x="39" y="20" fill="#fff" rx="1"/><rect width="2" height="2" x="51" y="20" fill="#fff" rx="1"/><rect width="2" height="2" x="63" y="20" fill="#fff" rx="1"/><rect width="2" height="2" x="75" y="20" fill="#fff" rx="1"/><rect width="2" height="2" x="9" y="28" fill="#fff" rx="1"/><rect width="2" height="2" x="21" y="28" fill="#fff" rx="1"/><rect width="2" height="2" x="33" y="28" fill="#fff" rx="1"/><rect width="2" height="2" x="45" y="28" fill="#fff" rx="1"/><rect width="2" height="2" x="57" y="28" fill="#fff" rx="1"/><rect width="2" height="2" x="69" y="28" fill="#fff" rx="1"/><rect width="2" height="2" x="3" y="36" fill="#fff" rx="1"/><rect width="2" height="2" x="15" y="36" fill="#fff" rx="1"/><rect width="2" height="2" x="27" y="36" fill="#fff" rx="1"/><rect width="2" height="2" x="39" y="36" fill="#fff" rx="1"/><rect width="2" height="2" x="51" y="36" fill="#fff" rx="1"/><rect width="2" height="2" x="63" y="36" fill="#fff" rx="1"/><rect width="2" height="2" x="75" y="36" fill="#fff" rx="1"/><rect width="2" height="2" x="9" y="44" fill="#fff" rx="1"/><rect width="2" height="2" x="21" y="44" fill="#fff" rx="1"/><rect width="2" height="2" x="33" y="44" fill="#fff" rx="1"/><rect width="2" height="2" x="45" y="44" fill="#fff" rx="1"/><rect width="2" height="2" x="57" y="44" fill="#fff" rx="1"/><rect width="2" height="2" x="69" y="44" fill="#fff" rx="1"/><rect width="2" height="2" x="3" y="52" fill="#fff" rx="1"/><rect width="2" height="2" x="15" y="52" fill="#fff" rx="1"/><rect width="2" height="2" x="27" y="52" fill="#fff" rx="1"/><rect width="2" height="2" x="39" y="52" fill="#fff" rx="1"/><rect width="2" height="2" x="51" y="52" fill="#fff" rx="1"/><rect width="2" height="2" x="63" y="52" fill="#fff" rx="1"/><rect width="2" height="2" x="75" y="52" fill="#fff" rx="1"/><rect width="2" height="2" x="9" y="60" fill="#fff" rx="1"/><rect width="2" height="2" x="21" y="60" fill="#fff" rx="1"/><rect width="2" height="2" x="33" y="60" fill="#fff" rx="1"/><rect width="2" height="2" x="45" y="60" fill="#fff" rx="1"/><rect width="2" height="2" x="57" y="60" fill="#fff" rx="1"/><rect width="2" height="2" x="69" y="60" fill="#fff" rx="1"/><rect width="2" height="2" x="3" y="68" fill="#fff" rx="1"/><rect width="2" height="2" x="15" y="68" fill="#fff" rx="1"/><rect width="2" height="2" x="27" y="68" fill="#fff" rx="1"/><rect width="2" height="2" x="39" y="68" fill="#fff" rx="1"/><rect width="2" height="2" x="51" y="68" fill="#fff" rx="1"/><rect width="2" height="2" x="63" y="68" fill="#fff" rx="1"/><rect width="2" height="2" x="75" y="68" fill="#fff" rx="1"/><rect width="2" height="2" x="9" y="76" fill="#fff" rx="1"/><rect width="2" height="2" x="21" y="76" fill="#fff" rx="1"/><rect width="2" height="2" x="33" y="76" fill="#fff" rx="1"/><rect width="2" height="2" x="45" y="76" fill="#fff" rx="1"/><rect width="2" height="2" x="57" y="76" fill="#fff" rx="1"/><rect width="2" height="2" x="69" y="76" fill="#fff" rx="1"/><rect width="2" height="2" x="3" y="84" fill="#fff" rx="1"/><rect width="2" height="2" x="15" y="84" fill="#fff" rx="1"/><rect width="2" height="2" x="27" y="84" fill="#fff" rx="1"/><rect width="2" height="2" x="39" y="84" fill="#fff" rx="1"/><rect width="2" height="2" x="51" y="84" fill="#fff" rx="1"/><rect width="2" height="2" x="63" y="84" fill="#fff" rx="1"/><rect width="2" height="2" x="75" y="84" fill="#fff" rx="1"/><rect width="2" height="2" x="9" y="92" fill="#fff" rx="1"/><rect width="2" height="2" x="21" y="92" fill="#fff" rx="1"/><rect width="2" height="2" x="33" y="92" fill="#fff" rx="1"/><rect width="2" height="2" x="45" y="92" fill="#fff" rx="1"/><rect width="2" height="2" x="57" y="92" fill="#fff" rx="1"/><rect width="2" height="2" x="69" y="92" fill="#fff" rx="1"/><rect width="2" height="2" x="3" y="100" fill="#fff" rx="1"/><rect width="2" height="2" x="15" y="100" fill="#fff" rx="1"/><rect width="2" height="2" x="27" y="100" fill="#fff" rx="1"/><rect width="2" height="2" x="39" y="100" fill="#fff" rx="1"/><rect width="2" height="2" x="51" y="100" fill="#fff" rx="1"/><rect width="2" height="2" x="63" y="100" fill="#fff" rx="1"/><rect width="2" height="2" x="75" y="100" fill="#fff" rx="1"/><rect width="2" height="2" x="9" y="108" fill="#fff" rx="1"/><rect width="2" height="2" x="21" y="108" fill="#fff" rx="1"/><rect width="2" height="2" x="33" y="108" fill="#fff" rx="1"/><rect width="2" height="2" x="45" y="108" fill="#fff" rx="1"/><rect width="2" height="2" x="57" y="108" fill="#fff" rx="1"/><rect width="2" height="2" x="69" y="108" fill="#fff" rx="1"/><rect width="2" height="2" x="3" y="116" fill="#fff" rx="1"/><rect width="2" height="2" x="15" y="116" fill="#fff" rx="1"/><rect width="2" height="2" x="27" y="116" fill="#fff" rx="1"/><rect width="2" height="2" x="39" y="116" fill="#fff" rx="1"/><rect width="2" height="2" x="51" y="116" fill="#fff" rx="1"/><rect width="2" height="2" x="63" y="116" fill="#fff" rx="1"/><rect width="2" height="2" x="75" y="116" fill="#fff" rx="1"/><rect width="2" height="2" x="9" y="124" fill="#fff" rx="1"/><rect width="2" height="2" x="21" y="124" fill="#fff" rx="1"/><rect width="2" height="2" x="33" y="124" fill="#fff" rx="1"/><rect width="2" height="2" x="45" y="124" fill="#fff" rx="1"/><rect width="2" height="2" x="57" y="124" fill="#fff" rx="1"/><rect width="2" height="2" x="69" y="124" fill="#fff" rx="1"/><path fill="#fff" d="M5 8h70v114H5z"/></svg>